{
	"asset":{
		"generator":"Khronos glTF Blender I/O v4.0.44",
		"version":"2.0"
	},
	"scene":0,
	"scenes":[
		{
			"name":"Scene",
			"nodes":[
				0,
				1
			]
		}
	],
	"nodes":[
		{
			"mesh":0,
			"name":"Sphere",
			"scale":[
				3.246899127960205,
				3.246899127960205,
				3.246899127960205
			],
			"translation":[
				-0.2352544665336609,
				0.626972496509552,
				-0.24024954438209534
			]
		},
		{
			"mesh":1,
			"name":"Text",
			"translation":[
				4.063431739807129,
				1.93695867061615,
				0.05909538269042969
			]
		}
	],
	"meshes":[
		{
			"name":"Sphere",
			"primitives":[
				{
					"attributes":{
						"POSITION":0,
						"NORMAL":1,
						"TEXCOORD_0":2
					},
					"indices":3
				}
			]
		},
		{
			"name":"hey there",
			"primitives":[
				{
					"attributes":{
						"POSITION":4,
						"NORMAL":5,
						"TEXCOORD_0":6
					},
					"indices":7
				}
			]
		}
	],
	"accessors":[
		{
			"bufferView":0,
			"componentType":5126,
			"count":559,
			"max":[
				0.9999997019767761,
				1,
				0.9999993443489075
			],
			"min":[
				-0.9999990463256836,
				-1,
				-1
			],
			"type":"VEC3"
		},
		{
			"bufferView":1,
			"componentType":5126,
			"count":559,
			"type":"VEC3"
		},
		{
			"bufferView":2,
			"componentType":5126,
			"count":559,
			"type":"VEC2"
		},
		{
			"bufferView":3,
			"componentType":5123,
			"count":2880,
			"type":"SCALAR"
		},
		{
			"bufferView":4,
			"componentType":5126,
			"count":177,
			"max":[
				1.915000081062317,
				0,
				0.009000000543892384
			],
			"min":[
				0.017000000923871994,
				0,
				-0.6820000410079956
			],
			"type":"VEC3"
		},
		{
			"bufferView":5,
			"componentType":5126,
			"count":177,
			"type":"VEC3"
		},
		{
			"bufferView":6,
			"componentType":5126,
			"count":177,
			"type":"VEC2"
		},
		{
			"bufferView":7,
			"componentType":5123,
			"count":513,
			"type":"SCALAR"
		}
	],
	"bufferViews":[
		{
			"buffer":0,
			"byteLength":6708,
			"byteOffset":0,
			"target":34962
		},
		{
			"buffer":0,
			"byteLength":6708,
			"byteOffset":6708,
			"target":34962
		},
		{
			"buffer":0,
			"byteLength":4472,
			"byteOffset":13416,
			"target":34962
		},
		{
			"buffer":0,
			"byteLength":5760,
			"byteOffset":17888,
			"target":34963
		},
		{
			"buffer":0,
			"byteLength":2124,
			"byteOffset":23648,
			"target":34962
		},
		{
			"buffer":0,
			"byteLength":2124,
			"byteOffset":25772,
			"target":34962
		},
		{
			"buffer":0,
			"byteLength":1416,
			"byteOffset":27896,
			"target":34962
		},
		{
			"buffer":0,
			"byteLength":1026,
			"byteOffset":29312,
			"target":34963
		}
	],
	"buffers":[
		{
			"byteLength":30340,
			"uri":"thing2.bin"
		}
	]
}
